<?xml version="1.0" standalone="no"?>
<!DOCTYPE svg PUBLIC "-//W3C//DTD SVG 20010904//EN"
 "http://www.w3.org/TR/2001/REC-SVG-20010904/DTD/svg10.dtd">
<svg version="1.0" xmlns="http://www.w3.org/2000/svg"
 width="1280.000000pt" height="1270.000000pt" viewBox="0 0 1280.000000 1270.000000"
 preserveAspectRatio="xMidYMid meet">
<metadata>
Created by potrace 1.16, written by Peter Selinger 2001-2019
</metadata>
<g transform="translate(0.000000,1270.000000) scale(0.100000,-0.100000)"
fill="#000000" stroke="none">
<path d="M6180 12569 c-556 -15 -1177 -125 -1717 -304 -573 -190 -1140 -474
-1613 -808 -175 -124 -406 -301 -440 -337 -3 -3 -52 -46 -110 -95 -104 -89
-450 -428 -504 -495 -16 -19 -57 -66 -91 -105 -79 -88 -159 -187 -259 -318
-11 -16 -25 -34 -31 -40 -47 -55 -256 -366 -338 -503 -112 -189 -145 -250
-247 -454 -43 -85 -84 -171 -93 -190 -244 -554 -401 -1088 -486 -1657 -71
-471 -81 -1148 -25 -1608 33 -265 75 -522 103 -625 5 -19 17 -69 26 -110 34
-155 144 -537 175 -605 5 -11 17 -42 25 -70 9 -27 23 -64 31 -82 8 -17 14 -34
14 -37 0 -18 142 -342 220 -501 75 -153 180 -347 251 -460 10 -16 26 -43 35
-60 32 -56 212 -324 295 -437 92 -125 234 -301 342 -423 90 -101 458 -468 557
-556 384 -338 857 -658 1300 -880 117 -58 330 -159 336 -159 3 0 31 -12 62
-26 31 -14 82 -35 112 -46 30 -11 87 -32 125 -48 202 -80 615 -201 855 -251
357 -73 579 -103 969 -130 188 -13 699 -7 856 10 50 5 124 12 165 16 454 40
1139 208 1605 394 296 119 628 278 787 378 21 13 40 23 43 23 31 0 680 439
725 490 3 3 50 41 105 85 55 44 105 85 111 90 6 6 47 41 90 79 102 90 420 408
510 510 102 116 108 123 124 143 225 273 410 533 573 806 42 70 77 129 77 131
0 2 16 33 36 68 46 80 224 435 224 446 0 4 12 33 26 63 38 78 149 364 190 488
145 438 223 788 284 1276 66 521 45 1267 -50 1780 -10 55 -20 114 -23 130 -6
41 -74 335 -98 420 -79 284 -135 449 -231 690 -98 245 -330 723 -375 773 -7 7
-13 18 -13 23 0 5 -5 15 -10 22 -6 7 -38 59 -72 117 -34 58 -64 107 -67 110
-7 5 -38 52 -56 83 -53 91 -306 430 -420 562 -521 602 -1037 1032 -1690 1407
-221 127 -647 330 -845 402 -240 88 -374 133 -495 166 -16 5 -57 16 -90 25
-140 38 -178 48 -335 81 -506 108 -980 149 -1540 133z m1025 -1673 c50 -3 198
-13 330 -22 214 -13 387 -29 710 -65 157 -17 532 -69 615 -84 41 -8 111 -20
154 -27 l80 -14 1 -194 c1 -182 3 -201 28 -284 45 -144 105 -251 197 -350 48
-52 135 -122 185 -149 86 -47 216 -106 265 -120 142 -41 331 -77 409 -77 20 0
41 -4 47 -8 10 -7 44 -219 64 -402 6 -52 12 -107 14 -121 2 -14 9 -155 16
-313 9 -226 9 -332 0 -497 -7 -115 -10 -212 -7 -215 5 -5 155 -36 236 -49 l44
-7 -7 -107 c-4 -58 -14 -149 -22 -201 -8 -52 -19 -126 -25 -165 -17 -129 -28
-189 -59 -335 -18 -80 -36 -165 -41 -189 -5 -24 -16 -69 -25 -100 -9 -31 -20
-72 -25 -91 -41 -166 -154 -500 -236 -697 -54 -131 -37 -123 -212 -94 -62 11
-118 17 -125 15 -6 -3 -50 -85 -98 -182 -252 -516 -603 -1010 -1018 -1431 -52
-53 -205 -197 -271 -256 -119 -106 -119 -106 -394 -319 -117 -91 -411 -294
-504 -348 -426 -249 -660 -370 -1031 -531 l-115 -49 -50 17 c-110 39 -650 297
-802 384 -39 22 -88 50 -107 61 -79 45 -105 60 -191 112 -149 91 -470 312
-529 363 -15 14 -30 25 -32 25 -4 0 -197 150 -204 159 -3 4 -32 29 -65 56
-149 124 -446 416 -575 567 -52 61 -103 120 -114 132 -18 20 -110 139 -151
194 -11 15 -41 55 -67 88 -27 34 -48 65 -48 68 0 3 -22 36 -48 73 -111 156
-247 390 -368 628 l-81 160 -44 -3 c-24 -1 -88 -9 -142 -18 -54 -9 -99 -15
-101 -13 -8 9 -56 121 -91 214 -21 55 -44 114 -51 130 -7 17 -33 95 -59 175
-26 80 -50 154 -55 165 -18 40 -145 560 -154 625 -2 19 -13 89 -25 155 -11 66
-23 143 -26 170 -4 28 -13 95 -20 150 -14 96 -18 151 -16 187 1 12 14 17 49
21 26 3 80 12 120 21 41 8 79 14 85 13 9 -1 11 27 7 103 -11 226 -3 804 13
980 8 96 18 186 20 200 3 14 11 68 17 120 6 52 16 117 23 144 13 53 31 66 95
66 97 0 374 66 496 118 215 91 389 248 480 429 66 133 81 212 81 431 0 105 1
192 3 192 2 0 35 6 75 14 70 14 163 30 357 60 93 15 291 40 400 51 30 3 69 8
85 10 64 9 307 34 435 44 342 27 448 33 635 40 245 8 1436 6 1560 -3z m-5184
-3752 c20 -60 49 -147 64 -194 14 -47 30 -92 34 -100 4 -8 27 -76 50 -150 23
-74 51 -156 62 -182 10 -26 19 -59 19 -73 0 -15 4 -24 10 -20 6 3 10 0 10 -7
0 -7 29 -101 65 -208 36 -107 79 -238 96 -290 16 -52 37 -110 45 -128 7 -18
14 -41 14 -52 0 -34 30 -40 171 -33 74 4 157 7 184 7 l50 1 0 -65 c0 -58 -2
-65 -20 -67 -64 -6 -338 -36 -440 -49 -66 -8 -165 -19 -220 -24 -55 -5 -131
-14 -170 -20 -38 -6 -88 -12 -110 -14 -22 -3 -80 -10 -130 -16 -191 -25 -210
-27 -218 -20 -7 6 22 111 43 155 6 11 24 61 41 110 17 50 36 104 43 120 7 17
22 59 34 95 37 117 113 334 128 367 7 17 14 39 14 50 0 19 -44 74 -151 188
-37 38 -97 106 -135 150 -38 44 -78 90 -89 101 -11 11 -51 56 -90 100 -38 43
-93 104 -122 134 -29 30 -53 60 -53 67 0 13 3 14 110 38 41 9 149 34 240 56
91 22 194 46 230 54 36 9 81 19 100 24 19 5 39 8 45 7 5 -1 26 -52 46 -112z
m9016 71 c103 -25 199 -48 213 -51 14 -2 48 -11 75 -18 28 -8 86 -22 130 -31
103 -21 115 -25 115 -33 0 -4 -16 -25 -36 -47 -19 -22 -45 -52 -57 -66 -12
-15 -56 -64 -98 -110 -42 -46 -114 -127 -160 -179 -45 -52 -114 -129 -153
-171 -121 -130 -136 -148 -136 -166 0 -10 23 -83 51 -163 28 -80 56 -165 63
-190 7 -25 20 -58 28 -75 8 -16 20 -50 27 -75 7 -25 19 -59 28 -76 8 -17 18
-46 23 -65 11 -45 33 -103 42 -109 4 -3 9 -27 10 -52 2 -25 7 -46 12 -45 5 1
12 -11 17 -26 l8 -29 -57 6 c-31 3 -95 8 -142 12 -47 3 -86 10 -88 15 -2 5
-31 9 -65 9 -34 1 -82 5 -107 10 -25 6 -99 15 -165 20 -66 6 -248 25 -405 43
l-285 32 -3 67 -3 68 68 -5 c37 -2 126 -5 198 -7 l130 -3 87 265 c48 146 92
274 97 285 5 11 16 43 25 70 8 28 36 111 62 185 25 74 52 155 59 180 7 25 22
70 33 100 11 30 48 143 82 250 33 107 63 201 65 208 6 17 1 17 212 -33z
m-5759 -4776 c3 -70 1 -77 -18 -82 -19 -5 -20 -12 -20 -215 0 -203 1 -210 20
-215 19 -5 21 -12 18 -84 l-3 -78 -120 0 -120 0 -3 77 c-3 69 -1 78 18 88 19
10 20 20 20 216 0 197 -1 206 -20 211 -18 5 -20 14 -20 77 0 40 3 76 7 80 4 3
59 5 122 4 l116 -3 3 -76z m864 64 c8 -10 38 -60 67 -111 29 -51 56 -90 61
-87 5 3 27 40 51 83 76 139 66 132 174 132 65 0 94 -4 97 -12 3 -7 6 -41 7
-75 2 -56 0 -63 -23 -78 l-25 -17 0 -194 c1 -194 1 -195 25 -211 21 -13 24
-23 23 -67 0 -28 -3 -64 -6 -79 l-5 -28 -121 3 -122 3 -3 75 c-3 65 -1 76 18
90 19 14 21 24 18 120 l-3 105 -33 -65 c-56 -108 -73 -132 -86 -121 -7 6 -30
47 -52 91 -21 44 -42 80 -46 80 -5 0 -8 -45 -8 -100 0 -90 2 -100 20 -110 19
-10 21 -19 18 -88 l-3 -77 -120 0 -120 0 -3 74 c-3 64 0 76 18 93 19 18 20 30
20 213 0 184 -1 195 -20 205 -17 9 -20 21 -20 84 0 40 3 76 7 79 3 4 45 7 93
7 70 0 90 -3 102 -17z m1596 -65 c3 -69 1 -77 -18 -83 -11 -3 -20 -13 -20 -20
0 -18 18 -109 30 -155 5 -19 17 -75 26 -125 19 -101 28 -125 50 -125 12 0 14
-14 12 -82 l-3 -83 -115 0 -115 0 -5 70 c-4 58 -2 74 14 92 27 33 12 43 -64
43 -76 0 -96 -13 -61 -39 20 -15 22 -24 19 -91 l-3 -75 -120 0 -120 0 -3 83
c-2 68 0 82 12 82 9 0 19 8 24 18 9 17 13 33 61 260 l28 134 -23 10 c-22 10
-24 17 -24 83 0 39 3 75 7 79 4 3 97 5 207 4 l201 -3 3 -77z m-3483 64 c6 -4
25 -24 43 -45 l32 -38 0 -118 c0 -105 -2 -120 -20 -136 -19 -18 -19 -19 -1
-49 13 -22 18 -52 19 -105 1 -56 5 -79 19 -95 18 -20 19 -34 15 -114 l-2 -32
-105 1 -105 2 0 73 c0 56 4 75 16 82 12 6 14 23 12 73 l-3 64 -45 3 c-24 2
-58 1 -75 -2 l-31 -6 4 -62 c3 -45 10 -66 24 -78 16 -12 19 -26 16 -80 l-3
-64 -112 -4 -113 -4 0 70 c0 61 3 71 23 84 21 15 22 21 26 221 l3 206 -26 12
c-24 11 -26 17 -26 74 0 34 3 65 7 68 9 9 396 9 408 -1z m4663 -14 c12 -13 31
-32 42 -43 18 -17 20 -29 18 -90 l-3 -70 -75 0 -75 0 0 32 c-1 18 -3 35 -6 38
-13 12 -169 12 -179 0 -7 -8 -9 -91 -8 -221 l3 -209 93 -3 c99 -3 93 -6 96 53
1 18 8 20 76 20 l75 0 3 -68 3 -68 -44 -44 -44 -43 -166 2 -167 1 -39 43 -39
43 -2 275 -1 276 33 44 c18 23 40 45 48 47 8 3 87 5 176 6 154 1 161 0 182
-21z m-2679 -1040 c120 -62 181 -195 181 -397 0 -312 -182 -484 -438 -416 -59
16 -74 26 -127 79 -49 50 -64 74 -83 131 -29 87 -39 228 -23 319 46 264 272
395 490 284z m689 6 c100 -49 144 -120 144 -235 0 -119 -20 -146 -207 -279
-65 -46 -155 -129 -155 -142 0 -5 46 -7 103 -6 l102 3 3 48 3 48 97 -3 97 -3
2 -122 1 -123 -294 -2 c-162 -1 -306 -2 -321 -2 l-28 -1 -3 87 c-3 95 -1 102
67 186 36 45 153 145 233 200 58 40 78 67 78 108 0 23 -8 39 -26 53 -47 37
-118 22 -185 -37 l-35 -30 -63 69 -63 70 43 40 c45 41 123 83 186 99 61 15
160 4 221 -26z m-1419 -3 c118 -62 170 -195 126 -322 -21 -58 -51 -88 -170
-169 -96 -66 -185 -144 -185 -162 0 -5 48 -7 108 -6 l107 3 3 48 3 47 95 0 94
0 0 -125 0 -125 -320 0 -320 0 0 85 c0 63 4 92 18 113 37 62 97 123 190 193
144 111 172 140 172 181 0 50 -30 78 -85 78 -55 0 -84 -11 -127 -49 l-35 -30
-62 63 -63 64 38 36 c22 21 70 52 107 71 66 33 73 34 165 32 79 -2 105 -7 141
-26z m2241 -66 l0 -85 -159 0 -160 0 -11 -56 c-7 -30 -10 -58 -7 -60 2 -3 16
0 31 6 15 5 59 10 97 10 82 0 147 -28 197 -84 58 -66 67 -93 67 -192 0 -83 -2
-94 -30 -140 -56 -90 -160 -149 -287 -161 -64 -6 -129 7 -204 42 -45 21 -115
79 -114 94 1 8 29 39 83 90 l47 45 20 -22 c35 -37 95 -62 151 -62 45 0 55 4
85 34 30 30 34 40 34 86 0 46 -4 56 -34 86 -44 44 -104 47 -161 8 l-38 -26
-69 28 c-38 15 -71 31 -73 34 -2 4 12 96 30 206 19 109 35 200 35 201 0 2 106
3 235 3 l235 0 0 -85z"/>
<path d="M5850 10613 c-380 -5 -898 -40 -1310 -89 -459 -54 -571 -72 -587 -92
-7 -9 -13 -37 -13 -63 0 -71 -35 -233 -71 -334 -32 -87 -130 -262 -156 -278
-7 -4 -13 -12 -13 -18 0 -20 -136 -151 -218 -210 -81 -59 -191 -122 -262 -149
-19 -7 -48 -19 -65 -25 -45 -19 -84 -32 -145 -48 -108 -30 -136 -36 -193 -42
-38 -5 -60 -13 -66 -24 -10 -19 -27 -187 -41 -399 -20 -304 -7 -845 21 -879 6
-7 15 -10 20 -7 5 3 62 14 127 25 379 64 938 138 1357 179 55 5 145 14 200 20
115 11 442 36 595 45 58 3 141 8 185 11 44 2 160 9 259 14 302 17 316 14 211
-35 -65 -31 -191 -113 -260 -168 -335 -273 -534 -652 -563 -1074 -18 -265 24
-510 129 -741 38 -85 34 -92 -44 -92 -112 0 -586 -44 -1037 -95 -74 -9 -178
-20 -230 -26 -52 -5 -167 -20 -255 -32 -131 -19 -161 -26 -163 -40 -8 -40 213
-435 374 -668 64 -93 269 -364 340 -449 131 -157 465 -490 629 -627 144 -120
390 -307 525 -398 66 -45 313 -201 355 -225 82 -45 176 -98 230 -128 69 -37
502 -252 509 -252 3 0 35 -14 71 -30 36 -17 72 -30 79 -30 28 0 212 82 446
199 413 207 779 431 1080 664 35 27 275 222 280 227 3 3 28 25 55 49 187 165
470 462 632 661 120 149 353 476 353 496 0 3 17 31 38 62 70 104 256 458 249
476 -3 8 -96 23 -273 44 -255 31 -378 43 -749 77 -88 8 -207 19 -265 25 -58 5
-186 15 -285 21 -99 6 -183 14 -187 18 -4 4 13 55 37 115 50 120 92 268 103
361 14 115 7 414 -11 511 -38 209 -133 423 -275 623 -118 167 -329 344 -529
445 -40 20 -73 41 -73 47 0 11 201 8 425 -6 39 -2 126 -7 195 -10 568 -27
1147 -75 1600 -134 129 -17 276 -36 325 -42 50 -5 126 -16 170 -24 258 -44
305 -49 317 -37 18 18 24 709 9 882 -25 268 -34 345 -45 357 -6 7 -42 17 -81
23 -141 21 -332 83 -460 149 -279 141 -470 348 -567 614 -44 121 -65 214 -73
315 -4 50 -11 94 -15 97 -9 6 -499 73 -625 85 -655 66 -943 81 -1650 83 -297
1 -601 1 -675 0z m983 -554 c12 -7 48 -34 80 -61 l57 -50 0 -98 0 -98 -52 -44
c-29 -23 -58 -50 -65 -58 -8 -11 -38 -16 -120 -18 -59 -2 -112 -7 -116 -12
-17 -16 4 -49 39 -60 l35 -12 -3 -66 -3 -67 -165 0 -165 0 -3 67 -3 66 36 13
35 13 0 163 c0 147 -2 164 -17 169 -43 13 -48 21 -51 79 -2 32 -1 64 2 71 7
18 445 20 479 3z m-642 -54 l69 -56 2 -192 c0 -106 0 -201 -1 -212 -2 -21 -26
-47 -96 -102 l-40 -33 -141 0 c-139 0 -141 0 -172 28 -17 15 -48 40 -67 56
l-35 28 0 212 0 213 28 24 c15 13 44 39 65 57 l38 32 141 0 141 0 68 -55z
m1279 38 c4 -4 26 -87 49 -183 23 -96 48 -201 56 -234 17 -68 16 -68 58 -82
31 -10 32 -12 35 -78 l3 -66 -163 2 -163 3 -3 68 c-3 64 -2 68 23 77 29 11 28
10 15 44 -9 24 -14 26 -73 26 -36 0 -68 -5 -75 -12 -18 -18 -14 -46 8 -58 16
-9 20 -21 20 -68 0 -31 -4 -63 -8 -70 -7 -10 -38 -11 -143 -5 -74 4 -133 11
-131 16 1 4 2 32 2 63 0 55 0 56 38 70 l37 15 48 159 c27 88 46 164 42 170 -3
5 -13 10 -20 10 -24 0 -37 37 -29 88 3 26 9 51 12 56 6 10 352 0 362 -11z
m-1925 -51 l60 -48 0 -59 0 -60 -81 -3 -82 -3 -10 31 c-10 28 -14 30 -66 30
-30 0 -67 -5 -82 -10 l-27 -11 7 -147 c4 -81 12 -151 17 -157 12 -12 117 -14
142 -2 9 4 17 16 17 25 0 33 22 42 102 42 l78 0 0 -60 c0 -56 -2 -61 -37 -94
-81 -74 -80 -73 -209 -81 -89 -5 -127 -4 -144 5 -46 25 -135 104 -141 125 -10
34 -22 349 -15 381 8 34 112 125 154 135 15 4 79 7 142 8 l116 1 59 -48z m453
-824 c7 -7 12 -38 12 -70 0 -57 -1 -58 -35 -73 l-36 -14 7 -158 c4 -87 11
-163 16 -170 5 -6 19 -13 31 -15 13 -2 24 -13 28 -28 12 -42 10 -97 -3 -108
-7 -5 -76 -11 -153 -13 l-140 -4 -3 63 c-2 51 1 67 17 88 21 26 24 85 7 113
-10 16 -133 15 -143 -1 -4 -7 -8 -30 -9 -52 -2 -29 4 -45 22 -63 20 -20 24
-34 24 -83 0 -32 -4 -61 -8 -64 -4 -2 -71 -6 -148 -8 l-139 -3 -5 40 c-9 69
-1 96 32 107 l29 10 -2 142 c-1 183 -3 191 -42 203 -31 8 -32 10 -35 75 -3 80
-8 78 169 78 l126 0 7 -41 c8 -51 -2 -106 -20 -113 -9 -4 -14 -22 -14 -56 l0
-51 78 3 77 3 3 43 c3 36 -1 48 -22 67 -22 21 -26 32 -26 84 0 73 -6 70 160
74 63 1 117 4 121 5 3 1 10 -3 17 -10z m400 -60 c3 -59 0 -68 -18 -78 -19 -10
-20 -20 -20 -171 l0 -159 28 -11 c36 -14 103 -5 119 17 9 13 13 59 13 156 0
135 -1 139 -25 160 -21 18 -25 30 -25 79 0 36 5 61 14 68 9 8 57 11 147 9
l134 -3 3 -68 c2 -58 0 -68 -15 -73 -49 -15 -48 -11 -53 -220 l-5 -199 -64
-48 -65 -49 -145 3 c-131 4 -148 6 -166 24 -12 12 -37 33 -58 49 l-37 28 0
195 0 194 -35 15 c-35 14 -35 15 -35 77 0 35 3 67 7 71 4 3 72 5 152 4 l146
-3 3 -67z m894 54 c7 -8 93 -362 104 -429 7 -47 27 -69 64 -75 24 -3 25 -6 25
-73 l0 -70 -70 -3 c-38 -2 -112 -1 -162 3 l-93 7 0 62 c0 54 3 65 24 83 17 15
23 28 19 42 -6 25 -33 33 -98 29 -63 -4 -77 -24 -46 -66 18 -26 21 -43 19 -89
l-3 -58 -135 0 -135 0 0 70 0 70 35 11 c33 11 36 16 63 105 75 246 73 239 54
239 -26 0 -38 27 -38 84 0 31 2 59 4 63 6 10 359 4 369 -5z m620 -18 c6 -4 1
-107 -7 -131 -3 -7 -18 -13 -34 -13 -20 0 -31 -6 -35 -17 -3 -10 -8 -85 -12
-167 -6 -121 -4 -150 7 -157 21 -13 133 -11 147 3 7 7 12 21 12 33 0 42 34 54
109 39 l32 -7 -3 -116 -3 -116 -170 2 c-272 4 -396 13 -402 29 -3 8 -2 38 1
68 7 49 10 54 39 63 l32 9 8 158 c5 87 6 164 3 172 -3 8 -16 14 -30 14 -13 0
-27 7 -30 16 -10 26 -7 94 5 116 11 20 16 20 168 13 86 -4 159 -9 163 -11z
m-2859 -51 c8 -27 34 -109 57 -183 83 -269 71 -244 131 -268 23 -9 27 -18 34
-67 4 -35 3 -61 -3 -67 -6 -6 -81 -13 -166 -16 l-156 -5 0 39 c0 22 -3 49 -6
60 -4 15 1 28 16 42 13 12 20 29 18 44 -3 20 -9 23 -57 26 -80 5 -101 -3 -101
-36 0 -16 8 -32 20 -40 17 -10 20 -23 20 -76 l0 -63 -37 -7 c-21 -3 -81 -6
-135 -6 l-96 0 -7 49 c-9 64 -2 83 38 101 31 15 33 19 68 170 20 85 34 161 31
168 -3 8 -15 17 -27 22 -20 7 -24 18 -27 67 -2 32 0 63 5 70 6 8 49 13 125 16
65 1 145 4 178 5 l62 2 15 -47z m3715 -48 l64 -60 -6 -100 c-6 -110 -3 -105
-100 -173 -37 -25 -46 -27 -150 -27 l-111 0 0 -30 c0 -24 6 -33 34 -45 l33
-15 -7 -60 c-3 -33 -9 -63 -13 -66 -8 -7 -289 8 -310 16 -9 3 -12 23 -10 66 3
64 3 64 58 89 17 8 26 73 31 230 4 98 3 105 -16 108 -35 7 -45 23 -45 74 0 89
-15 85 251 68 l233 -15 64 -60z m-4234 57 c3 -5 8 -63 12 -129 l7 -121 -61 -7
c-34 -4 -65 -4 -70 -1 -5 3 -13 26 -16 50 -8 53 -21 66 -60 59 l-28 -6 6 -86
c4 -47 9 -122 12 -166 3 -44 8 -83 11 -87 2 -5 15 -8 28 -8 41 0 56 -26 53
-89 l-3 -56 -65 -6 c-36 -4 -112 -8 -170 -10 l-105 -4 0 70 c0 69 1 70 27 73
15 2 30 11 33 21 6 19 -11 276 -21 319 -4 19 -10 23 -37 20 -30 -3 -32 -5 -42
-63 l-10 -60 -65 0 -65 0 -7 120 c-4 66 -4 123 0 127 8 8 454 44 569 47 34 0
64 -3 67 -7z m4719 -39 c56 -4 80 -10 86 -22 8 -15 19 -69 70 -368 18 -105 31
-133 60 -133 29 0 36 -17 33 -81 l-4 -62 -144 7 c-79 4 -151 9 -159 12 -11 5
-15 22 -15 65 0 51 3 61 25 75 27 17 33 52 13 72 -7 7 -40 12 -80 12 -64 0
-68 -1 -74 -26 -5 -18 -1 -30 15 -45 18 -17 20 -27 15 -77 -4 -31 -8 -59 -10
-61 -2 -2 -62 0 -133 4 l-131 7 0 69 0 68 35 7 c19 3 38 11 43 18 5 6 28 65
52 131 24 66 47 124 51 130 5 5 9 22 9 37 0 21 -6 31 -25 38 -27 10 -31 30
-18 104 l6 39 101 -7 c56 -3 136 -9 179 -13z m-5526 -173 c132 -360 112 -319
157 -328 41 -8 41 -8 49 -66 5 -32 5 -62 0 -67 -9 -8 -160 -26 -258 -31 l-60
-3 -3 66 c-2 50 1 69 13 79 19 16 19 44 1 59 -16 13 -123 4 -143 -12 -23 -17
-15 -57 12 -67 20 -8 25 -17 26 -47 0 -21 2 -48 5 -60 2 -12 0 -24 -5 -27 -5
-3 -63 -11 -131 -17 -141 -14 -140 -14 -140 69 0 50 2 54 30 63 34 12 37 20
71 210 24 132 22 159 -10 159 -21 0 -27 11 -36 81 -5 34 -3 49 6 55 18 11 230
32 303 30 l59 -1 54 -145z m2698 -612 c-7 -49 -7 -50 15 -38 24 13 43 4 21 -9
-17 -11 -30 -78 -31 -156 0 -61 1 -62 62 -154 14 -21 17 -39 12 -89 l-5 -63
35 -14 c20 -9 36 -22 36 -29 0 -8 23 -21 58 -32 54 -16 240 -107 252 -122 3
-4 35 -33 72 -65 152 -131 263 -357 271 -549 l2 -63 -160 -5 -160 -5 -3 -52
-3 -52 -97 -3 -97 -3 -3 -54 c-4 -63 4 -101 19 -101 18 0 93 -63 144 -120 27
-30 53 -56 59 -58 6 -1 26 13 43 32 46 48 109 76 172 76 100 0 151 -66 151
-194 0 -203 -153 -464 -423 -723 -79 -75 -183 -153 -205 -153 -20 0 -40 -39
-61 -118 -30 -115 -29 -285 1 -396 21 -78 52 -146 67 -146 17 0 72 -92 92
-156 12 -38 27 -75 32 -81 6 -9 41 -13 109 -13 l100 0 -7 -294 c-6 -245 -5
-295 6 -302 8 -5 46 -9 84 -9 l70 0 0 -85 0 -85 -772 -3 -773 -2 -1 57 c-1 67
1 106 7 112 2 3 36 6 75 8 39 1 75 6 81 9 7 5 8 96 3 300 l-7 293 103 3 103 3
26 76 c16 48 42 98 70 134 86 109 110 182 117 360 4 100 1 133 -16 196 -29
109 -37 126 -61 134 -66 21 -227 164 -377 335 -152 174 -247 364 -256 515 -5
90 8 139 52 185 36 37 41 40 95 40 66 0 136 -31 179 -79 15 -17 33 -31 40 -31
6 0 28 22 47 47 19 26 65 69 101 95 37 27 70 59 73 71 8 31 7 100 -2 114 -5 8
-42 13 -102 15 l-95 3 -5 50 -5 50 -155 5 -155 5 2 70 c5 183 92 366 248 521
81 80 104 97 206 147 117 58 209 87 273 87 27 0 44 7 60 25 29 32 56 32 85 1
39 -42 53 -24 49 63 -3 73 -4 76 -33 90 -17 8 -36 23 -43 33 -16 22 -35 23
-52 3 -7 -8 -21 -15 -30 -15 -10 0 -32 -11 -48 -25 -37 -31 -36 -31 -75 -1
-18 13 -48 29 -67 34 l-35 9 29 14 c24 11 32 11 58 -4 48 -28 60 -22 106 53
47 76 65 140 40 140 -8 0 -19 -5 -26 -12 -9 -9 -12 -9 -12 3 0 19 39 73 73
100 21 16 27 29 27 59 0 38 12 52 38 42 10 -3 12 -17 7 -54z"/>
<path d="M6630 9900 c-16 -10 -22 -42 -14 -77 4 -21 10 -23 72 -23 40 0 73 5
80 12 18 18 15 55 -6 76 -20 20 -107 29 -132 12z"/>
<path d="M5911 9886 c-8 -9 -11 -61 -9 -162 l3 -149 80 0 80 0 3 136 c1 75 -2
148 -7 163 -10 24 -15 26 -75 26 -42 0 -67 -5 -75 -14z"/>
<path d="M8488 8954 c-5 -4 -8 -28 -8 -54 l0 -47 62 -7 c49 -5 65 -3 80 11 21
19 24 66 5 81 -16 13 -129 26 -139 16z"/>
<path d="M5595 6446 c-17 -12 -20 -26 -20 -98 1 -73 5 -93 37 -166 40 -92 96
-189 112 -195 7 -3 11 30 12 97 1 71 8 121 23 170 l21 70 -21 40 c-37 73 -120
114 -164 82z"/>
<path d="M7094 6450 c-31 -12 -69 -50 -88 -88 -15 -28 -16 -41 -6 -80 28 -115
39 -200 34 -249 -7 -63 10 -65 44 -5 87 154 115 235 114 327 0 59 -3 72 -22
87 -24 19 -43 22 -76 8z"/>
<path d="M5917 5850 c-21 -20 -22 -30 -3 -30 14 0 27 -22 25 -43 0 -7 -4 -3
-9 8 l-9 20 -1 -20 c0 -15 -5 -11 -16 15 -19 43 -19 43 -42 36 -18 -6 -17 -10
12 -68 35 -69 105 -152 147 -173 15 -8 42 -15 59 -15 27 0 30 3 30 33 0 26
-15 53 -70 123 -114 144 -103 133 -123 114z"/>
<path d="M3760 7214 c-11 -26 -20 -50 -20 -55 0 -20 -55 -48 -110 -54 -33 -4
-63 -12 -66 -17 -4 -6 19 -36 51 -67 l57 -56 -6 -73 c-8 -86 -3 -99 30 -77 14
9 45 27 70 40 l46 24 59 -29 c78 -40 93 -39 85 3 -3 17 -8 55 -12 82 l-6 51
53 51 c61 59 59 70 -16 79 -91 10 -92 11 -130 79 -20 36 -43 65 -50 65 -8 0
-23 -21 -35 -46z"/>
<path d="M9014 7194 c-15 -36 -35 -69 -43 -74 -9 -4 -42 -11 -74 -15 -32 -4
-61 -13 -63 -19 -3 -7 21 -38 52 -68 39 -40 54 -62 50 -75 -2 -10 -8 -44 -12
-75 -8 -71 -1 -73 85 -22 l61 36 70 -36 c82 -43 87 -39 71 50 -15 82 -16 80
39 138 28 29 50 58 50 64 0 6 -21 13 -47 17 -110 13 -114 15 -151 83 -18 34
-40 62 -47 62 -7 0 -25 -30 -41 -66z"/>
<path d="M4040 2356 c-5 -5 -10 -38 -10 -72 0 -71 2 -72 82 -72 26 0 52 5 57
12 12 14 18 123 7 133 -11 12 -124 11 -136 -1z"/>
<path d="M6043 1278 c-50 -55 -58 -86 -58 -223 0 -112 3 -137 22 -177 11 -25
33 -54 48 -64 25 -16 27 -16 53 3 32 24 49 70 63 172 12 81 7 137 -19 219 -24
80 -72 111 -109 70z"/>
</g>
</svg>
